<svg id="Software" xmlns="http://www.w3.org/2000/svg" xmlns:xlink="http://www.w3.org/1999/xlink" viewBox="0 0 275 275"><defs><style>.cls-1{fill:url(#linear-gradient);}.cls-2,.cls-5{fill:#253858;}.cls-2{opacity:0.1;}.cls-3{fill:#0049b0;}.cls-4{fill:#505f79;}.cls-6{fill:url(#linear-gradient-2);}.cls-10,.cls-14,.cls-7,.cls-9{fill:none;}.cls-7{stroke:#3384ff;}.cls-10,.cls-7,.cls-8,.cls-9{stroke-miterlimit:10;}.cls-10,.cls-14,.cls-7,.cls-8,.cls-9{stroke-width:2px;}.cls-12,.cls-8{fill:#3384ff;}.cls-10,.cls-8{stroke:#00c7e5;}.cls-9{stroke:#fafbfc;}.cls-11{fill:url(#linear-gradient-3);}.cls-13{fill:#fafbfc;}.cls-14{stroke:#0057d8;stroke-linecap:round;stroke-linejoin:round;}</style><linearGradient id="linear-gradient" x1="50.59" y1="225.97" x2="221.56" y2="55" gradientTransform="translate(-0.22 0.21) rotate(-0.09)" gradientUnits="userSpaceOnUse"><stop offset="0.21" stop-color="#0065ff"/><stop offset="1" stop-color="#4c9aff"/></linearGradient><linearGradient id="linear-gradient-2" x1="66.03" y1="200.69" x2="205.44" y2="61.28" gradientUnits="userSpaceOnUse"><stop offset="0" stop-color="#091e42"/><stop offset="0.46" stop-color="#091e42" stop-opacity="0.96"/><stop offset="0.75" stop-color="#091e42" stop-opacity="0.83"/><stop offset="0.99" stop-color="#091e42" stop-opacity="0.61"/><stop offset="1" stop-color="#091e42" stop-opacity="0.6"/></linearGradient><linearGradient id="linear-gradient-3" x1="135.98" y1="223.54" x2="135.98" y2="22.58" gradientUnits="userSpaceOnUse"><stop offset="0" stop-color="#e6fcff" stop-opacity="0.2"/><stop offset="0.15" stop-color="#d9f9fe" stop-opacity="0.2"/><stop offset="0.25" stop-color="#aeeff9" stop-opacity="0.2"/><stop offset="0.33" stop-color="#66def0" stop-opacity="0.2"/><stop offset="0.4" stop-color="#00c7e5" stop-opacity="0.2"/><stop offset="0.63" stop-color="#00c7e5" stop-opacity="0.19"/><stop offset="0.78" stop-color="#00c7e5" stop-opacity="0.15"/><stop offset="0.89" stop-color="#00c7e5" stop-opacity="0.09"/><stop offset="1" stop-color="#00c7e5" stop-opacity="0"/></linearGradient></defs><title>Artboard 38</title><rect id="_Rectangle_" data-name="&lt;Rectangle&gt;" class="cls-1" x="35.42" y="70.15" width="201.32" height="140.67" transform="translate(0.22 -0.21) rotate(0.09)"/><path class="cls-2" d="M35.32,189.35l0,21.31,21.52,0V148.92a96.35,96.35,0,0,1-8.32,21.57A96.34,96.34,0,0,1,35.32,189.35Z"/><rect class="cls-3" x="56.78" y="89.83" width="158.67" height="74.79" transform="translate(0.2 -0.21) rotate(0.09)"/><rect class="cls-4" x="83.99" y="39.43" width="103.16" height="150.94"/><rect class="cls-5" x="77.68" y="46.45" width="116.49" height="150.94"/><rect class="cls-6" x="71.79" y="55.51" width="127.89" height="150.94"/><line class="cls-7" x1="100.76" y1="71.04" x2="134.01" y2="71.04"/><line class="cls-7" x1="86.6" y1="71.04" x2="95.04" y2="71.04"/><line class="cls-8" x1="100.76" y1="80.44" x2="134.01" y2="80.44"/><line class="cls-7" x1="86.6" y1="80.44" x2="95.04" y2="80.44"/><line class="cls-7" x1="100.76" y1="89.85" x2="163.23" y2="89.85"/><line class="cls-7" x1="86.6" y1="89.85" x2="95.04" y2="89.85"/><line class="cls-8" x1="163.23" y1="99.25" x2="184.96" y2="99.25"/><line class="cls-9" x1="100.76" y1="99.25" x2="156.55" y2="99.25"/><line class="cls-7" x1="86.6" y1="99.25" x2="95.04" y2="99.25"/><line class="cls-7" x1="100.76" y1="108.66" x2="163.23" y2="108.66"/><line class="cls-7" x1="86.6" y1="108.66" x2="95.04" y2="108.66"/><line class="cls-7" x1="100.76" y1="118.06" x2="184.96" y2="118.06"/><line class="cls-7" x1="86.6" y1="118.06" x2="95.04" y2="118.06"/><line class="cls-10" x1="100.76" y1="127.46" x2="134.01" y2="127.46"/><line class="cls-7" x1="86.6" y1="127.46" x2="95.04" y2="127.46"/><line class="cls-7" x1="141.65" y1="136.87" x2="161.8" y2="136.87"/><line class="cls-10" x1="100.76" y1="136.87" x2="134.01" y2="136.87"/><line class="cls-7" x1="86.6" y1="136.87" x2="95.04" y2="136.87"/><polygon class="cls-11" points="198.43 223.54 73.53 223.54 45.74 22.58 226.22 22.58 198.43 223.54"/><rect class="cls-12" x="56.65" y="149.01" width="158.67" height="104.51" transform="translate(0.31 -0.21) rotate(0.09)"/><rect class="cls-13" x="120.02" y="224.23" width="46" height="8.22" rx="2.8" ry="2.8" transform="translate(0.35 -0.22) rotate(0.09)"/><circle class="cls-13" cx="108.17" cy="228.29" r="4.11"/><polygon class="cls-14" points="166.06 201.04 105.85 200.95 105.95 168.32 166.16 168.41 166.06 201.04"/><polyline class="cls-14" points="144.73 178.76 151.08 185.67 144.17 192.01"/><polyline class="cls-14" points="127.99 178.63 121.08 184.97 127.42 191.88"/><line class="cls-14" x1="138.33" y1="176.32" x2="133.3" y2="194.39"/></svg>